<?xml version="1.0" encoding="utf-8"?>
<!-- Generator: Adobe Illustrator 18.1.1, SVG Export Plug-In . SVG Version: 6.00 Build 0)  -->
<svg version="1.1" id="Layer_1" xmlns="http://www.w3.org/2000/svg" xmlns:xlink="http://www.w3.org/1999/xlink" x="0px" y="0px"
	 viewBox="-370 545.5 100 100" enable-background="new -370 545.5 100 100" xml:space="preserve">
<polygon fill="#FFFFFF" points="-343.5,561.6 -360.2,624.9 -289.8,624.1 -272.5,561.6 "/>
<g>
	<path d="M-367,606.3h10.2l1.9-7.1h-13.3l1.2-4.4h13.3l1.9-7.1h-16.4l1.2-4.5h16.4l1.9-7.1h-19.5l1.2-4.4h19.5l2.9-11h73.3
		l-17.2,64.2h-73.3l3.8-14.2h-10.2L-367,606.3z M-354.8,606.3h9.5l-1.2,4.4h-9.5l-3.4,12.6h69.4l16.3-61H-343l-2.5,9.4h8.8l-1.2,4.4
		h-8.8l-1.9,7.1h8.6l-1.2,4.5h-8.6l-1.9,7.1h9.3l-1.2,4.4h-9.3L-354.8,606.3z M-302.5,592.9H-336l1-3.6h33.5L-302.5,592.9z
		 M-304.7,600.8h-27.8l1-3.6h27.8L-304.7,600.8z M-306.8,608.8h-22.9l0.9-3.6h22.9L-306.8,608.8z M-282.4,579.5H-299l3.6-13.3h16.6
		L-282.4,579.5z"/>
</g>
</svg>
