<?xml version="1.0" encoding="utf-8"?>
<!-- Generator: Adobe Illustrator 18.1.1, SVG Export Plug-In . SVG Version: 6.00 Build 0)  -->
<svg version="1.1" id="Layer_1" xmlns="http://www.w3.org/2000/svg" xmlns:xlink="http://www.w3.org/1999/xlink" x="0px" y="0px"
	 viewBox="0 0 841.9 1190.6" enable-background="new 0 0 841.9 1190.6" xml:space="preserve">
<g>
	<g id="XMLID_1_">
		<rect x="434.7" y="162.1" fill="#FFFFFF" width="90.1" height="162.3"/>
		<path fill="#FFFFFF" d="M578.9,450.2v216H254.6V450.6c0-12.1,6-18.2,17.9-18.2h288.5c5.9,0,10.2,1.5,13.3,4.6
			C577.4,440,578.9,444.3,578.9,450.2z"/>
		<path fill="#FFFFFF" d="M669,223.5v424.9c0,11.9-6.1,17.9-18.3,17.9h-54V450.6c0-9.9-3.5-18.5-10.3-25.5
			c-7-7.1-15.4-10.6-25.4-10.6H272.8c-10,0-18.5,3.5-25.6,10.6c-7.1,7.1-10.6,15.6-10.6,25.5v215.7h-54c-11.9,0-17.9-6-17.9-17.9
			V179.9c0-5.9,1.4-10.2,4.4-13.3c2.9-3,7.4-4.6,13.5-4.6h108.1v162c0,12.2,6.1,18.3,18.3,18.3h216c12,0,17.9-6.1,17.9-18.3v-162
			h64.9L669,223.5z"/>
		<path d="M686.9,216.2v432.2c0,10-3.5,18.4-10.6,25.4c-7.1,7-15.6,10.3-25.6,10.3h-468c-10,0-18.4-3.5-25.4-10.3
			c-7-7-10.5-15.4-10.5-25.4V180.2c0-10,3.5-18.5,10.5-25.6c7-7.1,15.4-10.6,25.4-10.6H615L686.9,216.2z M669,648.4V223.5
			l-61.3-61.4h-64.9v162c0,12.2-6,18.3-17.9,18.3H308.9c-12.2,0-18.3-6.1-18.3-18.3v-162h-108c-6.1,0-10.6,1.5-13.5,4.6
			c-2.9,3-4.4,7.5-4.4,13.3v468.5c0,12,6,17.9,17.9,17.9h54V450.6c0-9.9,3.5-18.5,10.6-25.5c7.1-7.1,15.6-10.6,25.6-10.6h288.2
			c10,0,18.4,3.5,25.4,10.6c7,7.1,10.3,15.6,10.3,25.5v215.7h54C662.9,666.2,669,660.2,669,648.4z M578.9,666.2v-216
			c0-5.9-1.5-10.2-4.6-13.3s-7.5-4.6-13.3-4.6H272.5c-12,0-17.9,6.1-17.9,18.2v215.7L578.9,666.2L578.9,666.2z M524.9,324.4V162.1
			h-90.1v162.3H524.9z"/>
	</g>
</g>
</svg>
